<mxfile host="app.diagrams.net" modified="2024-04-22T07:49:32.019Z" agent="Mozilla/5.0 (Macintosh; Intel Mac OS X 10_15_7) AppleWebKit/537.36 (KHTML, like Gecko) Chrome/123.0.0.0 Safari/537.36" version="24.2.7" etag="JBZUPfHQ9RTSIA9bzodx" type="github">
  <diagram name="Page-1" id="vbzTFONadE2Aj1aD9CdF">
    <mxGraphModel>
      <root>
        <mxCell id="0" />
        <mxCell id="1" parent="0" />
      </root>
    </mxGraphModel>
  </diagram>
</mxfile>
